<svg width="26" height="24" viewBox="0 0 26 24" fill="none" xmlns="http://www.w3.org/2000/svg">
<g id="icn/sidebar/calendar/inactive">
<path id="calendar" fill-rule="evenodd" clip-rule="evenodd" d="M7.57414 2C7.57414 1.44772 8.02185 1 8.57414 1H8.67566C9.22795 1 9.67566 1.44772 9.67566 2V3H15.9802V2C15.9802 1.44772 16.4279 1 16.9802 1H17.0818C17.634 1 18.0818 1.44772 18.0818 2V3C20.403 3 22.2848 4.79086 22.2848 7V17C22.2848 19.2091 20.403 21 18.0818 21H7.57414C5.25286 21 3.37109 19.2091 3.37109 17V7C3.37109 4.79086 5.25286 3 7.57414 3V2ZM15.9802 5C15.9802 5.55228 16.4279 6 16.9802 6H17.0818C17.634 6 18.0818 5.55228 18.0818 5L18.2386 5.00549C19.326 5.08183 20.1833 5.94564 20.1833 7V8H5.47262V7L5.47838 6.85074C5.55861 5.81588 6.46626 5 7.57414 5C7.57414 5.55228 8.02185 6 8.57414 6H8.67566C9.22795 6 9.67566 5.55228 9.67566 5H15.9802Z" fill="#7D8592"/>
</g>
</svg>
