<svg width="32" height="32" viewBox="0 0 32 32" fill="none" xmlns="http://www.w3.org/2000/svg">
<rect width="32" height="32" rx="8" fill="white" fill-opacity="0.2"/>
<path d="M16 19.5C11.58 19.5 8 21.29 8 23.5V25.5H24V23.5C24 21.29 20.42 19.5 16 19.5ZM12 13.5C12 14.5609 12.4214 15.5783 13.1716 16.3284C13.9217 17.0786 14.9391 17.5 16 17.5C17.0609 17.5 18.0783 17.0786 18.8284 16.3284C19.5786 15.5783 20 14.5609 20 13.5M15.5 6.5C15.2 6.5 15 6.71 15 7V10H14V7.5C14 7.5 11.75 8.36 11.75 11.25C11.75 11.25 11 11.39 11 12.5H21C20.95 11.39 20.25 11.25 20.25 11.25C20.25 8.36 18 7.5 18 7.5V10H17V7C17 6.71 16.81 6.5 16.5 6.5H15.5Z" fill="white"/>
</svg>
